<mxfile host="Electron" agent="Mozilla/5.0 (Windows NT 10.0; Win64; x64) AppleWebKit/537.36 (KHTML, like Gecko) draw.io/24.7.17 Chrome/128.0.6613.36 Electron/32.0.1 Safari/537.36" version="24.7.17">
  <diagram id="C5RBs43oDa-KdzZeNtuy" name="Page-1">
    <mxGraphModel dx="2920" dy="1105" grid="1" gridSize="10" guides="1" tooltips="1" connect="1" arrows="1" fold="1" page="1" pageScale="1" pageWidth="827" pageHeight="1169" math="0" shadow="0">
      <root>
        <mxCell id="WIyWlLk6GJQsqaUBKTNV-0" />
        <mxCell id="WIyWlLk6GJQsqaUBKTNV-1" parent="WIyWlLk6GJQsqaUBKTNV-0" />
        <mxCell id="SzZz6POqMCVOrlCHHyYx-6" value="" style="edgeStyle=orthogonalEdgeStyle;rounded=0;orthogonalLoop=1;jettySize=auto;html=1;" parent="WIyWlLk6GJQsqaUBKTNV-1" source="SzZz6POqMCVOrlCHHyYx-0" target="SzZz6POqMCVOrlCHHyYx-5" edge="1">
          <mxGeometry relative="1" as="geometry" />
        </mxCell>
        <mxCell id="SzZz6POqMCVOrlCHHyYx-0" value="START" style="ellipse;whiteSpace=wrap;html=1;" parent="WIyWlLk6GJQsqaUBKTNV-1" vertex="1">
          <mxGeometry x="354" y="50" width="120" height="80" as="geometry" />
        </mxCell>
        <mxCell id="SzZz6POqMCVOrlCHHyYx-8" value="" style="edgeStyle=orthogonalEdgeStyle;rounded=0;orthogonalLoop=1;jettySize=auto;html=1;" parent="WIyWlLk6GJQsqaUBKTNV-1" source="SzZz6POqMCVOrlCHHyYx-5" target="SzZz6POqMCVOrlCHHyYx-7" edge="1">
          <mxGeometry relative="1" as="geometry" />
        </mxCell>
        <mxCell id="SzZz6POqMCVOrlCHHyYx-5" value="Program Pembayaran Pajak Bermotor" style="whiteSpace=wrap;strokeWidth=2;" parent="WIyWlLk6GJQsqaUBKTNV-1" vertex="1">
          <mxGeometry x="286" y="190" width="256" height="67" as="geometry" />
        </mxCell>
        <mxCell id="6YCq6eEk2sj9xlBVEo1R-12" style="edgeStyle=orthogonalEdgeStyle;rounded=0;orthogonalLoop=1;jettySize=auto;html=1;" edge="1" parent="WIyWlLk6GJQsqaUBKTNV-1" source="SzZz6POqMCVOrlCHHyYx-7" target="6YCq6eEk2sj9xlBVEo1R-5">
          <mxGeometry relative="1" as="geometry" />
        </mxCell>
        <mxCell id="SzZz6POqMCVOrlCHHyYx-7" value="Pilih Opsi" style="rhombus;strokeWidth=2;whiteSpace=wrap;" parent="WIyWlLk6GJQsqaUBKTNV-1" vertex="1">
          <mxGeometry x="356" y="320" width="115" height="115" as="geometry" />
        </mxCell>
        <mxCell id="SzZz6POqMCVOrlCHHyYx-23" value="" style="edgeStyle=orthogonalEdgeStyle;rounded=0;orthogonalLoop=1;jettySize=auto;html=1;" parent="WIyWlLk6GJQsqaUBKTNV-1" source="SzZz6POqMCVOrlCHHyYx-10" target="SzZz6POqMCVOrlCHHyYx-22" edge="1">
          <mxGeometry relative="1" as="geometry" />
        </mxCell>
        <mxCell id="SzZz6POqMCVOrlCHHyYx-25" value="" style="edgeStyle=orthogonalEdgeStyle;rounded=0;orthogonalLoop=1;jettySize=auto;html=1;" parent="WIyWlLk6GJQsqaUBKTNV-1" source="SzZz6POqMCVOrlCHHyYx-10" target="SzZz6POqMCVOrlCHHyYx-24" edge="1">
          <mxGeometry relative="1" as="geometry" />
        </mxCell>
        <mxCell id="SzZz6POqMCVOrlCHHyYx-27" value="" style="edgeStyle=orthogonalEdgeStyle;rounded=0;orthogonalLoop=1;jettySize=auto;html=1;entryX=0.5;entryY=0;entryDx=0;entryDy=0;" parent="WIyWlLk6GJQsqaUBKTNV-1" source="SzZz6POqMCVOrlCHHyYx-10" target="6YCq6eEk2sj9xlBVEo1R-2" edge="1">
          <mxGeometry relative="1" as="geometry">
            <mxPoint x="412.13" y="850" as="targetPoint" />
          </mxGeometry>
        </mxCell>
        <mxCell id="SzZz6POqMCVOrlCHHyYx-10" value="1. Login" style="whiteSpace=wrap;html=1;strokeWidth=2;" parent="WIyWlLk6GJQsqaUBKTNV-1" vertex="1">
          <mxGeometry x="354" y="710" width="120" height="60" as="geometry" />
        </mxCell>
        <mxCell id="SzZz6POqMCVOrlCHHyYx-73" value="" style="edgeStyle=orthogonalEdgeStyle;rounded=0;orthogonalLoop=1;jettySize=auto;html=1;" parent="WIyWlLk6GJQsqaUBKTNV-1" source="SzZz6POqMCVOrlCHHyYx-22" edge="1">
          <mxGeometry relative="1" as="geometry">
            <mxPoint x="212.13" y="850" as="targetPoint" />
          </mxGeometry>
        </mxCell>
        <mxCell id="SzZz6POqMCVOrlCHHyYx-22" value="2. Register" style="whiteSpace=wrap;html=1;strokeWidth=2;" parent="WIyWlLk6GJQsqaUBKTNV-1" vertex="1">
          <mxGeometry x="152.13" y="710" width="120" height="60" as="geometry" />
        </mxCell>
        <mxCell id="SzZz6POqMCVOrlCHHyYx-82" value="" style="edgeStyle=orthogonalEdgeStyle;rounded=0;orthogonalLoop=1;jettySize=auto;html=1;" parent="WIyWlLk6GJQsqaUBKTNV-1" source="SzZz6POqMCVOrlCHHyYx-24" target="SzZz6POqMCVOrlCHHyYx-81" edge="1">
          <mxGeometry relative="1" as="geometry" />
        </mxCell>
        <mxCell id="SzZz6POqMCVOrlCHHyYx-24" value="3. Logout" style="whiteSpace=wrap;html=1;strokeWidth=2;" parent="WIyWlLk6GJQsqaUBKTNV-1" vertex="1">
          <mxGeometry x="552.13" y="710" width="120" height="60" as="geometry" />
        </mxCell>
        <mxCell id="SzZz6POqMCVOrlCHHyYx-29" value="" style="edgeStyle=orthogonalEdgeStyle;rounded=0;orthogonalLoop=1;jettySize=auto;html=1;" parent="WIyWlLk6GJQsqaUBKTNV-1" source="6YCq6eEk2sj9xlBVEo1R-2" target="SzZz6POqMCVOrlCHHyYx-28" edge="1">
          <mxGeometry relative="1" as="geometry">
            <mxPoint x="412.13" y="880" as="sourcePoint" />
          </mxGeometry>
        </mxCell>
        <mxCell id="SzZz6POqMCVOrlCHHyYx-31" value="" style="edgeStyle=orthogonalEdgeStyle;rounded=0;orthogonalLoop=1;jettySize=auto;html=1;" parent="WIyWlLk6GJQsqaUBKTNV-1" source="SzZz6POqMCVOrlCHHyYx-28" target="SzZz6POqMCVOrlCHHyYx-30" edge="1">
          <mxGeometry relative="1" as="geometry" />
        </mxCell>
        <mxCell id="SzZz6POqMCVOrlCHHyYx-59" value="" style="edgeStyle=orthogonalEdgeStyle;rounded=0;orthogonalLoop=1;jettySize=auto;html=1;" parent="WIyWlLk6GJQsqaUBKTNV-1" source="SzZz6POqMCVOrlCHHyYx-28" target="SzZz6POqMCVOrlCHHyYx-58" edge="1">
          <mxGeometry relative="1" as="geometry" />
        </mxCell>
        <mxCell id="SzZz6POqMCVOrlCHHyYx-28" value="Cek Valid" style="rhombus;whiteSpace=wrap;html=1;strokeWidth=2;" parent="WIyWlLk6GJQsqaUBKTNV-1" vertex="1">
          <mxGeometry x="352" y="957.5" width="123.5" height="117.5" as="geometry" />
        </mxCell>
        <mxCell id="SzZz6POqMCVOrlCHHyYx-33" value="" style="edgeStyle=orthogonalEdgeStyle;rounded=0;orthogonalLoop=1;jettySize=auto;html=1;" parent="WIyWlLk6GJQsqaUBKTNV-1" source="SzZz6POqMCVOrlCHHyYx-30" target="SzZz6POqMCVOrlCHHyYx-32" edge="1">
          <mxGeometry relative="1" as="geometry" />
        </mxCell>
        <mxCell id="SzZz6POqMCVOrlCHHyYx-35" value="" style="edgeStyle=orthogonalEdgeStyle;rounded=0;orthogonalLoop=1;jettySize=auto;html=1;" parent="WIyWlLk6GJQsqaUBKTNV-1" source="SzZz6POqMCVOrlCHHyYx-30" target="SzZz6POqMCVOrlCHHyYx-34" edge="1">
          <mxGeometry relative="1" as="geometry" />
        </mxCell>
        <mxCell id="SzZz6POqMCVOrlCHHyYx-30" value="Login Berhasil" style="whiteSpace=wrap;html=1;strokeWidth=2;" parent="WIyWlLk6GJQsqaUBKTNV-1" vertex="1">
          <mxGeometry x="354" y="1120" width="120" height="60" as="geometry" />
        </mxCell>
        <mxCell id="SzZz6POqMCVOrlCHHyYx-37" value="" style="edgeStyle=orthogonalEdgeStyle;rounded=0;orthogonalLoop=1;jettySize=auto;html=1;" parent="WIyWlLk6GJQsqaUBKTNV-1" source="SzZz6POqMCVOrlCHHyYx-32" target="SzZz6POqMCVOrlCHHyYx-36" edge="1">
          <mxGeometry relative="1" as="geometry" />
        </mxCell>
        <mxCell id="SzZz6POqMCVOrlCHHyYx-39" value="" style="edgeStyle=orthogonalEdgeStyle;rounded=0;orthogonalLoop=1;jettySize=auto;html=1;" parent="WIyWlLk6GJQsqaUBKTNV-1" source="SzZz6POqMCVOrlCHHyYx-32" target="SzZz6POqMCVOrlCHHyYx-38" edge="1">
          <mxGeometry relative="1" as="geometry" />
        </mxCell>
        <mxCell id="SzZz6POqMCVOrlCHHyYx-40" value="" style="edgeStyle=orthogonalEdgeStyle;rounded=0;orthogonalLoop=1;jettySize=auto;html=1;" parent="WIyWlLk6GJQsqaUBKTNV-1" source="SzZz6POqMCVOrlCHHyYx-32" target="SzZz6POqMCVOrlCHHyYx-38" edge="1">
          <mxGeometry relative="1" as="geometry" />
        </mxCell>
        <mxCell id="SzZz6POqMCVOrlCHHyYx-43" value="" style="edgeStyle=orthogonalEdgeStyle;rounded=0;orthogonalLoop=1;jettySize=auto;html=1;" parent="WIyWlLk6GJQsqaUBKTNV-1" source="SzZz6POqMCVOrlCHHyYx-32" target="SzZz6POqMCVOrlCHHyYx-42" edge="1">
          <mxGeometry relative="1" as="geometry" />
        </mxCell>
        <mxCell id="SzZz6POqMCVOrlCHHyYx-45" value="" style="edgeStyle=orthogonalEdgeStyle;rounded=0;orthogonalLoop=1;jettySize=auto;html=1;" parent="WIyWlLk6GJQsqaUBKTNV-1" source="SzZz6POqMCVOrlCHHyYx-32" target="SzZz6POqMCVOrlCHHyYx-44" edge="1">
          <mxGeometry relative="1" as="geometry" />
        </mxCell>
        <mxCell id="SzZz6POqMCVOrlCHHyYx-47" value="" style="edgeStyle=orthogonalEdgeStyle;rounded=0;orthogonalLoop=1;jettySize=auto;html=1;" parent="WIyWlLk6GJQsqaUBKTNV-1" source="SzZz6POqMCVOrlCHHyYx-32" target="SzZz6POqMCVOrlCHHyYx-46" edge="1">
          <mxGeometry relative="1" as="geometry" />
        </mxCell>
        <mxCell id="SzZz6POqMCVOrlCHHyYx-32" value="Menu Admin" style="whiteSpace=wrap;html=1;strokeWidth=2;" parent="WIyWlLk6GJQsqaUBKTNV-1" vertex="1">
          <mxGeometry x="-30" y="1210" width="120" height="60" as="geometry" />
        </mxCell>
        <mxCell id="SzZz6POqMCVOrlCHHyYx-49" value="" style="edgeStyle=orthogonalEdgeStyle;rounded=0;orthogonalLoop=1;jettySize=auto;html=1;" parent="WIyWlLk6GJQsqaUBKTNV-1" source="SzZz6POqMCVOrlCHHyYx-34" target="SzZz6POqMCVOrlCHHyYx-48" edge="1">
          <mxGeometry relative="1" as="geometry" />
        </mxCell>
        <mxCell id="SzZz6POqMCVOrlCHHyYx-51" value="" style="edgeStyle=orthogonalEdgeStyle;rounded=0;orthogonalLoop=1;jettySize=auto;html=1;" parent="WIyWlLk6GJQsqaUBKTNV-1" source="SzZz6POqMCVOrlCHHyYx-34" target="SzZz6POqMCVOrlCHHyYx-50" edge="1">
          <mxGeometry relative="1" as="geometry" />
        </mxCell>
        <mxCell id="SzZz6POqMCVOrlCHHyYx-53" value="" style="edgeStyle=orthogonalEdgeStyle;rounded=0;orthogonalLoop=1;jettySize=auto;html=1;" parent="WIyWlLk6GJQsqaUBKTNV-1" source="SzZz6POqMCVOrlCHHyYx-34" target="SzZz6POqMCVOrlCHHyYx-52" edge="1">
          <mxGeometry relative="1" as="geometry" />
        </mxCell>
        <mxCell id="SzZz6POqMCVOrlCHHyYx-34" value="Menu Pengguna" style="whiteSpace=wrap;html=1;strokeWidth=2;" parent="WIyWlLk6GJQsqaUBKTNV-1" vertex="1">
          <mxGeometry x="740" y="1219" width="120" height="60" as="geometry" />
        </mxCell>
        <mxCell id="SzZz6POqMCVOrlCHHyYx-36" value="Lihat Daftar Pajak Motor" style="whiteSpace=wrap;html=1;strokeWidth=2;" parent="WIyWlLk6GJQsqaUBKTNV-1" vertex="1">
          <mxGeometry x="-180" y="1380" width="120" height="60" as="geometry" />
        </mxCell>
        <mxCell id="SzZz6POqMCVOrlCHHyYx-38" value="Edit Pajak Motor" style="whiteSpace=wrap;html=1;strokeWidth=2;" parent="WIyWlLk6GJQsqaUBKTNV-1" vertex="1">
          <mxGeometry x="-30" y="1380" width="120" height="60" as="geometry" />
        </mxCell>
        <mxCell id="SzZz6POqMCVOrlCHHyYx-42" value="Hapus Jenis Motor" style="whiteSpace=wrap;html=1;strokeWidth=2;" parent="WIyWlLk6GJQsqaUBKTNV-1" vertex="1">
          <mxGeometry x="120" y="1380" width="120" height="60" as="geometry" />
        </mxCell>
        <mxCell id="SzZz6POqMCVOrlCHHyYx-44" value="Tambah Jenis Motor" style="whiteSpace=wrap;html=1;strokeWidth=2;" parent="WIyWlLk6GJQsqaUBKTNV-1" vertex="1">
          <mxGeometry x="260" y="1380" width="120" height="60" as="geometry" />
        </mxCell>
        <mxCell id="SzZz6POqMCVOrlCHHyYx-46" value="Logout Admin" style="whiteSpace=wrap;html=1;strokeWidth=2;" parent="WIyWlLk6GJQsqaUBKTNV-1" vertex="1">
          <mxGeometry x="-330" y="1380" width="120" height="60" as="geometry" />
        </mxCell>
        <mxCell id="SzZz6POqMCVOrlCHHyYx-48" value="Bayar Pajak Motor" style="whiteSpace=wrap;html=1;strokeWidth=2;" parent="WIyWlLk6GJQsqaUBKTNV-1" vertex="1">
          <mxGeometry x="740" y="1380" width="120" height="60" as="geometry" />
        </mxCell>
        <mxCell id="SzZz6POqMCVOrlCHHyYx-50" value="Lihat Daftar Pajak Motor" style="whiteSpace=wrap;html=1;strokeWidth=2;" parent="WIyWlLk6GJQsqaUBKTNV-1" vertex="1">
          <mxGeometry x="600" y="1380" width="120" height="60" as="geometry" />
        </mxCell>
        <mxCell id="SzZz6POqMCVOrlCHHyYx-52" value="Logout Pengguna" style="whiteSpace=wrap;html=1;strokeWidth=2;" parent="WIyWlLk6GJQsqaUBKTNV-1" vertex="1">
          <mxGeometry x="880" y="1380" width="120" height="60" as="geometry" />
        </mxCell>
        <mxCell id="SzZz6POqMCVOrlCHHyYx-58" value="Login Gagal" style="whiteSpace=wrap;html=1;strokeWidth=2;" parent="WIyWlLk6GJQsqaUBKTNV-1" vertex="1">
          <mxGeometry x="555.88" y="986.25" width="120" height="60" as="geometry" />
        </mxCell>
        <mxCell id="SzZz6POqMCVOrlCHHyYx-75" value="" style="edgeStyle=orthogonalEdgeStyle;rounded=0;orthogonalLoop=1;jettySize=auto;html=1;" parent="WIyWlLk6GJQsqaUBKTNV-1" target="SzZz6POqMCVOrlCHHyYx-74" edge="1">
          <mxGeometry relative="1" as="geometry">
            <mxPoint x="212.13" y="880" as="sourcePoint" />
          </mxGeometry>
        </mxCell>
        <mxCell id="SzZz6POqMCVOrlCHHyYx-74" value="Register Berhasil" style="whiteSpace=wrap;html=1;strokeWidth=2;" parent="WIyWlLk6GJQsqaUBKTNV-1" vertex="1">
          <mxGeometry x="152.13" y="986.25" width="120" height="60" as="geometry" />
        </mxCell>
        <mxCell id="SzZz6POqMCVOrlCHHyYx-81" value="Terima Kasih Telah Menggunakan Program" style="whiteSpace=wrap;html=1;strokeWidth=2;" parent="WIyWlLk6GJQsqaUBKTNV-1" vertex="1">
          <mxGeometry x="1241" y="1620" width="120" height="60" as="geometry" />
        </mxCell>
        <mxCell id="SzZz6POqMCVOrlCHHyYx-83" value="" style="endArrow=none;html=1;rounded=0;exitX=1;exitY=0.5;exitDx=0;exitDy=0;" parent="WIyWlLk6GJQsqaUBKTNV-1" source="SzZz6POqMCVOrlCHHyYx-52" edge="1">
          <mxGeometry width="50" height="50" relative="1" as="geometry">
            <mxPoint x="1010" y="1410" as="sourcePoint" />
            <mxPoint x="1080" y="1410" as="targetPoint" />
          </mxGeometry>
        </mxCell>
        <mxCell id="SzZz6POqMCVOrlCHHyYx-84" value="" style="endArrow=none;html=1;rounded=0;" parent="WIyWlLk6GJQsqaUBKTNV-1" edge="1">
          <mxGeometry width="50" height="50" relative="1" as="geometry">
            <mxPoint x="1080" y="1410" as="sourcePoint" />
            <mxPoint x="1080" y="450" as="targetPoint" />
          </mxGeometry>
        </mxCell>
        <mxCell id="SzZz6POqMCVOrlCHHyYx-85" value="" style="endArrow=classic;html=1;rounded=0;entryX=1;entryY=1;entryDx=0;entryDy=0;" parent="WIyWlLk6GJQsqaUBKTNV-1" target="SzZz6POqMCVOrlCHHyYx-7" edge="1">
          <mxGeometry width="50" height="50" relative="1" as="geometry">
            <mxPoint x="1080" y="450" as="sourcePoint" />
            <mxPoint x="1130" y="400" as="targetPoint" />
          </mxGeometry>
        </mxCell>
        <mxCell id="SzZz6POqMCVOrlCHHyYx-87" value="" style="endArrow=none;html=1;rounded=0;entryX=0;entryY=0.5;entryDx=0;entryDy=0;" parent="WIyWlLk6GJQsqaUBKTNV-1" target="SzZz6POqMCVOrlCHHyYx-46" edge="1">
          <mxGeometry width="50" height="50" relative="1" as="geometry">
            <mxPoint x="-400" y="1410" as="sourcePoint" />
            <mxPoint x="-333" y="1409.17" as="targetPoint" />
          </mxGeometry>
        </mxCell>
        <mxCell id="SzZz6POqMCVOrlCHHyYx-88" value="" style="endArrow=none;html=1;rounded=0;" parent="WIyWlLk6GJQsqaUBKTNV-1" edge="1">
          <mxGeometry width="50" height="50" relative="1" as="geometry">
            <mxPoint x="-400" y="1410" as="sourcePoint" />
            <mxPoint x="-400" y="450" as="targetPoint" />
          </mxGeometry>
        </mxCell>
        <mxCell id="SzZz6POqMCVOrlCHHyYx-89" value="" style="endArrow=classic;html=1;rounded=0;entryX=0;entryY=1;entryDx=0;entryDy=0;" parent="WIyWlLk6GJQsqaUBKTNV-1" target="SzZz6POqMCVOrlCHHyYx-7" edge="1">
          <mxGeometry width="50" height="50" relative="1" as="geometry">
            <mxPoint x="-400" y="450" as="sourcePoint" />
            <mxPoint x="-1030" y="400" as="targetPoint" />
          </mxGeometry>
        </mxCell>
        <mxCell id="6YCq6eEk2sj9xlBVEo1R-1" value="Input Username &amp;amp; Password Baru" style="shape=process;whiteSpace=wrap;html=1;backgroundOutline=1;" vertex="1" parent="WIyWlLk6GJQsqaUBKTNV-1">
          <mxGeometry x="152.13" y="850" width="120" height="60" as="geometry" />
        </mxCell>
        <mxCell id="6YCq6eEk2sj9xlBVEo1R-3" value="True" style="text;html=1;align=center;verticalAlign=middle;whiteSpace=wrap;rounded=0;" vertex="1" parent="WIyWlLk6GJQsqaUBKTNV-1">
          <mxGeometry x="360" y="1075" width="60" height="30" as="geometry" />
        </mxCell>
        <mxCell id="6YCq6eEk2sj9xlBVEo1R-4" value="False" style="text;html=1;align=center;verticalAlign=middle;whiteSpace=wrap;rounded=0;" vertex="1" parent="WIyWlLk6GJQsqaUBKTNV-1">
          <mxGeometry x="480.63" y="986.25" width="60" height="30" as="geometry" />
        </mxCell>
        <mxCell id="6YCq6eEk2sj9xlBVEo1R-15" style="edgeStyle=orthogonalEdgeStyle;rounded=0;orthogonalLoop=1;jettySize=auto;html=1;entryX=0.5;entryY=0;entryDx=0;entryDy=0;" edge="1" parent="WIyWlLk6GJQsqaUBKTNV-1" source="6YCq6eEk2sj9xlBVEo1R-5" target="6YCq6eEk2sj9xlBVEo1R-14">
          <mxGeometry relative="1" as="geometry" />
        </mxCell>
        <mxCell id="6YCq6eEk2sj9xlBVEo1R-5" value="Input Opsi" style="shape=process;whiteSpace=wrap;html=1;backgroundOutline=1;" vertex="1" parent="WIyWlLk6GJQsqaUBKTNV-1">
          <mxGeometry x="354" y="480" width="120" height="60" as="geometry" />
        </mxCell>
        <mxCell id="6YCq6eEk2sj9xlBVEo1R-2" value="Input Username &amp;amp; Password" style="shape=process;whiteSpace=wrap;html=1;backgroundOutline=1;" vertex="1" parent="WIyWlLk6GJQsqaUBKTNV-1">
          <mxGeometry x="354" y="830" width="120" height="60" as="geometry" />
        </mxCell>
        <mxCell id="6YCq6eEk2sj9xlBVEo1R-21" value="" style="edgeStyle=orthogonalEdgeStyle;rounded=0;orthogonalLoop=1;jettySize=auto;html=1;" edge="1" parent="WIyWlLk6GJQsqaUBKTNV-1" source="6YCq6eEk2sj9xlBVEo1R-14" target="6YCq6eEk2sj9xlBVEo1R-20">
          <mxGeometry relative="1" as="geometry" />
        </mxCell>
        <mxCell id="6YCq6eEk2sj9xlBVEo1R-14" value="Pilih Opsi 1,2,3" style="rhombus;whiteSpace=wrap;html=1;" vertex="1" parent="WIyWlLk6GJQsqaUBKTNV-1">
          <mxGeometry x="374" y="580" width="80" height="80" as="geometry" />
        </mxCell>
        <mxCell id="6YCq6eEk2sj9xlBVEo1R-16" style="edgeStyle=orthogonalEdgeStyle;rounded=0;orthogonalLoop=1;jettySize=auto;html=1;entryX=0.503;entryY=0.067;entryDx=0;entryDy=0;entryPerimeter=0;" edge="1" parent="WIyWlLk6GJQsqaUBKTNV-1" source="6YCq6eEk2sj9xlBVEo1R-14" target="SzZz6POqMCVOrlCHHyYx-10">
          <mxGeometry relative="1" as="geometry" />
        </mxCell>
        <mxCell id="6YCq6eEk2sj9xlBVEo1R-19" value="True" style="text;html=1;align=center;verticalAlign=middle;whiteSpace=wrap;rounded=0;" vertex="1" parent="WIyWlLk6GJQsqaUBKTNV-1">
          <mxGeometry x="370" y="670" width="50" height="20" as="geometry" />
        </mxCell>
        <mxCell id="6YCq6eEk2sj9xlBVEo1R-20" value="Pilihan Tidak Valid" style="whiteSpace=wrap;html=1;" vertex="1" parent="WIyWlLk6GJQsqaUBKTNV-1">
          <mxGeometry x="514" y="590" width="120" height="60" as="geometry" />
        </mxCell>
        <mxCell id="6YCq6eEk2sj9xlBVEo1R-22" value="False" style="text;html=1;align=center;verticalAlign=middle;whiteSpace=wrap;rounded=0;" vertex="1" parent="WIyWlLk6GJQsqaUBKTNV-1">
          <mxGeometry x="460" y="600" width="46" height="20" as="geometry" />
        </mxCell>
      </root>
    </mxGraphModel>
  </diagram>
</mxfile>
